<svg width="707" height="88" viewBox="0 0 707 88" fill="none" xmlns="http://www.w3.org/2000/svg">
<path d="M0.52 1.99999H36.4C47.52 1.99999 55.84 3.51999 61.36 6.55999C66.96 9.52 69.76 14.56 69.76 21.68C69.76 32.64 63.16 39.2 49.96 41.36V41.6C65.96 43.6 73.96 50.56 73.96 62.48C73.96 71.2 70.68 77.32 64.12 80.84C57.56 84.28 48.12 86 35.8 86H0.52V83.72H8.32V4.27999H0.52V1.99999ZM31.72 43.52V83.72H37.36C41.76 83.72 44.84 82.2 46.6 79.16C48.36 76.12 49.24 71.64 49.24 65.72V59.36C49.24 54.08 48.16 50.12 46 47.48C43.84 44.84 40 43.52 34.48 43.52H31.72ZM31.72 4.27999V41.24H34.84C39 41.24 41.88 40 43.48 37.52C45.16 34.96 46 31.08 46 25.88V20.24C46 14.32 45.28 10.2 43.84 7.88C42.4 5.47999 39.64 4.27999 35.56 4.27999H31.72ZM80.1016 1.99999H116.702V4.27999H110.102V83.72H116.702V86H80.1016V83.72H86.7016V4.27999H80.1016V1.99999ZM179.878 48.92V40.04C179.878 25.4 179.158 16.16 177.718 12.32C176.118 7.92 173.838 5.2 170.878 4.16C169.198 3.51999 167.158 3.19999 164.758 3.19999C162.358 3.19999 160.278 3.51999 158.518 4.16C156.838 4.8 155.438 5.92 154.318 7.51999C153.198 9.12 152.278 10.8 151.558 12.56C150.918 14.32 150.398 16.8 149.998 20C149.518 24.64 149.278 31.48 149.278 40.52V49.16C149.278 58.92 149.638 65.88 150.358 70.04C151.158 74.12 152.118 77.04 153.238 78.8C155.718 82.72 159.558 84.68 164.758 84.68C171.078 84.68 175.158 82.04 176.998 76.76C178.918 71.4 179.878 62.12 179.878 48.92ZM164.518 87.2C151.158 87.2 141.158 83.6 134.518 76.4C127.958 69.12 124.678 58.64 124.678 44.96C124.678 31.2 128.198 20.4 135.238 12.56C142.358 4.64 152.398 0.679997 165.358 0.679997C178.318 0.679997 188.078 4.44 194.638 11.96C201.278 19.4 204.598 30 204.598 43.76C204.598 57.52 201.238 68.2 194.518 75.8C187.878 83.4 177.878 87.2 164.518 87.2ZM256.323 84.8C260.243 84.8 262.723 84.08 263.763 82.64C264.883 81.2 265.443 78.76 265.443 75.32V52.04H257.763V49.4H292.323V52.04H287.643V85.88H285.843C284.403 83.88 282.363 82.88 279.723 82.88C278.603 82.88 275.243 83.6 269.643 85.04C264.123 86.48 259.403 87.2 255.483 87.2C242.443 87.2 232.323 83.68 225.123 76.64C218.003 69.6 214.443 59.04 214.443 44.96C214.443 30.8 218.163 19.88 225.603 12.2C233.123 4.52 243.203 0.679997 255.843 0.679997C260.723 0.679997 265.603 1.32 270.483 2.59999C275.443 3.8 278.323 4.4 279.123 4.4C279.923 4.4 280.523 4.24 280.923 3.92C281.323 3.52 281.763 2.88 282.243 1.99999H283.563L284.523 28.04H282.363C278.443 20.28 274.483 14.2 270.483 9.79999C266.563 5.31999 262.163 3.07999 257.283 3.07999C245.043 3.07999 238.923 15.04 238.923 38.96V48.44C238.923 60.44 240.403 69.52 243.363 75.68C246.403 81.76 250.723 84.8 256.323 84.8ZM335.602 43.52H329.242V83.72H337.042V86H298.042V83.72H305.842V4.27999H298.042V1.99999H334.282C344.682 1.99999 352.042 2.55999 356.362 3.67999C360.762 4.72 363.842 6 365.602 7.51999C369.442 10.64 371.362 15.6 371.362 22.4C371.362 29.2 369.682 34.08 366.322 37.04C362.962 39.92 357.842 41.64 350.962 42.2V42.56C357.442 43.44 361.962 45.36 364.522 48.32C367.082 51.28 368.362 56.24 368.362 63.2V69.56C368.362 73.72 368.562 76.52 368.962 77.96C369.442 79.4 370.402 80.12 371.842 80.12C373.282 80.12 374.402 79.48 375.202 78.2C376.082 76.84 376.882 74.04 377.602 69.8L379.642 70.04C378.762 76.84 377.202 81.4 374.962 83.72C372.802 86.04 368.442 87.2 361.882 87.2C355.322 87.2 350.642 85.68 347.842 82.64C345.122 79.52 343.762 73.72 343.762 65.24V56.48C343.762 52 343.162 48.72 341.962 46.64C340.842 44.56 338.722 43.52 335.602 43.52ZM329.242 4.27999V41.24H333.082C337.642 41.24 341.002 39.84 343.162 37.04C345.402 34.24 346.522 29.68 346.522 23.36V19.88C346.522 13.56 345.442 9.39999 343.282 7.4C341.202 5.31999 337.842 4.27999 333.202 4.27999H329.242ZM432.809 83.72L424.049 57.8H400.289L391.049 83.72H400.049V86H381.689V83.72H387.329L417.929 1.28H427.769L458.009 83.72H463.529V86H424.289V83.72H432.809ZM412.649 23.72L401.369 55.16H423.089L412.649 23.72ZM466.089 1.99999H501.369C513.449 1.99999 522.449 3.76 528.369 7.28C534.289 10.72 537.249 16.92 537.249 25.88C537.249 35.8 533.649 42.64 526.449 46.4C519.729 49.84 510.329 51.56 498.249 51.56H497.289V83.72H512.289V86H466.089V83.72H473.889V4.27999H466.089V1.99999ZM497.289 4.27999V49.28H499.809C504.609 49.28 507.929 47.64 509.769 44.36C511.609 41.08 512.529 35.76 512.529 28.4V22.64C512.529 15.84 511.649 11.08 509.889 8.36C508.209 5.64 505.089 4.27999 500.529 4.27999H497.289ZM542.864 1.99999H580.304V4.27999H573.344V41.48H597.224V4.27999H590.144V1.99999H627.704V4.27999H620.624V83.72H627.704V86H590.144V83.72H597.224V44.6H573.344V83.72H580.304V86H542.864V83.72H549.944V4.27999H542.864V1.99999ZM677.867 41.48L694.907 3.92H682.787V1.99999H706.427V3.92H698.507L680.387 44V83.72H687.707V86H649.667V83.72H656.987V46.28L636.587 3.92H630.947V1.99999H669.347V3.92H661.547L677.867 41.48Z" fill="black"/>
</svg>
