<svg width="434" height="162" viewBox="0 0 434 162" fill="none" xmlns="http://www.w3.org/2000/svg">
<path id="Fashion" d="M2.52 43H64.92L66.12 67.96H63.96C61 59.32 57.56 53.44 53.64 50.32C49.8 47.2 44.04 45.64 36.36 45.64H33V84.64H38.4C42.24 84.64 45.44 83.24 48 80.44C50.56 77.64 52.32 73.8 53.28 68.92H55.08V104.44H53.04C51.76 98.44 49.96 94.16 47.64 91.6C45.4 89.04 42.32 87.76 38.4 87.76H33V124.36H47.88V127H2.52V124.36H9.6V45.64H2.52V43ZM94.4531 98.8H97.9331V89.56C97.9331 81.96 97.4931 76.88 96.6131 74.32C95.8131 71.68 94.2131 70.36 91.8131 70.36C90.3731 70.36 89.0531 70.76 87.8531 71.56C86.7331 72.28 86.1731 73.32 86.1731 74.68C86.1731 75.96 86.4131 77.28 86.8931 78.64H89.8931C90.5331 80.32 90.8531 82.36 90.8531 84.76C90.8531 87.08 89.8531 89.12 87.8531 90.88C85.8531 92.56 83.3331 93.4 80.2931 93.4C73.4131 93.4 69.9731 90.08 69.9731 83.44C69.9731 73.6 78.3331 68.68 95.0531 68.68C104.573 68.68 111.133 70.32 114.733 73.6C118.413 76.8 120.253 82.72 120.253 91.36V115.72C120.253 119.88 121.413 121.96 123.733 121.96C126.453 121.96 128.053 117.84 128.533 109.6L130.333 109.72C130.013 116.76 128.693 121.6 126.373 124.24C124.053 126.88 120.253 128.2 114.973 128.2C105.373 128.2 99.8531 125.24 98.4131 119.32C97.3731 122.36 95.8131 124.6 93.7331 126.04C91.6531 127.48 88.6131 128.2 84.6131 128.2C72.7731 128.2 66.8531 123.36 66.8531 113.68C66.8531 108 69.0931 104.12 73.5731 102.04C78.1331 99.88 85.0931 98.8 94.4531 98.8ZM89.6531 113.56C89.6531 117.72 89.8531 120.4 90.2531 121.6C90.7331 122.8 91.5731 123.4 92.7731 123.4C94.0531 123.4 95.2131 122.4 96.2531 120.4C97.3731 118.32 97.9331 115.48 97.9331 111.88V100.72H97.0931C92.1331 100.72 89.6531 104.36 89.6531 111.64V113.56ZM134.272 128.2V106.72H135.713C137.793 113.68 140.593 118.56 144.113 121.36C147.633 124.16 152.033 125.56 157.313 125.56C165.473 125.56 169.553 122.96 169.553 117.76C169.553 115.52 168.553 113.84 166.553 112.72C163.433 110.96 159.433 109.6 154.553 108.64C149.113 107.2 144.553 105.28 140.873 102.88C136.473 100 134.272 95.44 134.272 89.2C134.272 82.96 136.192 78 140.033 74.32C143.873 70.56 148.993 68.68 155.393 68.68C159.313 68.68 163.353 69.6 167.513 71.44C169.033 72.08 170.193 72.4 170.993 72.4C171.793 72.4 172.473 72.12 173.033 71.56C173.593 71 174.273 69.96 175.073 68.44H176.393V86.8H174.953C170.873 76.4 164.553 71.2 155.993 71.2C152.233 71.2 149.433 71.88 147.593 73.24C145.753 74.52 144.833 76.16 144.833 78.16C144.833 79.36 145.113 80.32 145.673 81.04C146.233 81.68 146.673 82.16 146.993 82.48C147.313 82.8 147.833 83.16 148.553 83.56C149.273 83.88 149.873 84.16 150.353 84.4C150.833 84.56 151.553 84.8 152.513 85.12C153.553 85.44 154.313 85.64 154.793 85.72C160.233 87.08 164.153 88.28 166.553 89.32C168.953 90.28 171.233 91.48 173.393 92.92C177.793 95.96 179.993 100.88 179.993 107.68C179.993 114.4 177.993 119.52 173.993 123.04C169.993 126.48 164.513 128.2 157.553 128.2C152.593 128.2 147.793 127.04 143.153 124.72C142.193 124.08 141.433 123.76 140.873 123.76C139.113 123.76 137.393 125.24 135.713 128.2H134.272ZM183.544 37H212.464V80.92C213.744 77.24 215.704 74.28 218.344 72.04C220.984 69.8 224.984 68.68 230.344 68.68C242.744 68.68 248.944 75.36 248.944 88.72V124.84H255.664V127H221.704V124.84H226.624V85.84C226.624 81.04 226.304 77.96 225.664 76.6C225.024 75.16 223.864 74.44 222.184 74.44C219.624 74.44 217.344 76.12 215.344 79.48C213.424 82.84 212.464 86.92 212.464 91.72V124.84H217.624V127H183.544V124.84H190.144V39.16H183.544V37ZM275.129 61.6C270.889 61.6 267.849 60.52 266.009 58.36C264.249 56.2 263.369 53.52 263.369 50.32C263.369 47.12 264.329 44.48 266.249 42.4C268.249 40.32 271.249 39.28 275.249 39.28C279.249 39.28 282.289 40.24 284.369 42.16C286.449 44 287.489 46.68 287.489 50.2C287.489 53.64 286.489 56.4 284.489 58.48C282.489 60.56 279.369 61.6 275.129 61.6ZM257.009 69.88H286.409V124.84H293.129V127H257.489V124.84H264.089V72.04H257.009V69.88ZM334.335 103.36V93.16C334.335 85.4 333.895 79.76 333.015 76.24C332.215 72.64 330.295 70.84 327.255 70.84C325.495 70.84 324.055 71.36 322.935 72.4C321.895 73.36 321.135 75 320.655 77.32C319.935 80.92 319.575 86.4 319.575 93.76V103.12C319.575 111.84 319.815 117.08 320.295 118.84C320.855 120.6 321.415 122.04 321.975 123.16C322.855 125.08 324.575 126.04 327.135 126.04C330.255 126.04 332.295 124.24 333.255 120.64C333.975 118.08 334.335 112.32 334.335 103.36ZM326.895 128.2C316.895 128.2 309.335 125.64 304.215 120.52C299.095 115.4 296.535 108.08 296.535 98.56C296.535 88.96 299.255 81.6 304.695 76.48C310.215 71.28 317.935 68.68 327.855 68.68C337.775 68.68 345.175 71.08 350.055 75.88C354.935 80.6 357.375 87.84 357.375 97.6C357.375 118 347.215 128.2 326.895 128.2ZM360.971 69.88H389.891V80.92C391.171 77.24 393.131 74.28 395.771 72.04C398.411 69.8 402.411 68.68 407.771 68.68C420.171 68.68 426.371 75.36 426.371 88.72V124.84H433.091V127H399.131V124.84H404.051V85.84C404.051 81.04 403.731 77.96 403.091 76.6C402.451 75.16 401.291 74.44 399.611 74.44C397.051 74.44 394.771 76.12 392.771 79.48C390.851 82.84 389.891 86.92 389.891 91.72V124.84H395.051V127H360.971V124.84H367.571V72.04H360.971V69.88Z" fill="black"/>
</svg>
