<svg width="468" height="79" viewBox="0 0 468 79" fill="none" xmlns="http://www.w3.org/2000/svg">
<path d="M2.98023e-08 3H24.4V4.52H20V29.8L20.64 29.64L43.2 4.52H36.88V3H50.88V4.52H46.08L32.32 19.88L51.52 57.48H55.84V59H30.16V57.48H33.92L20.72 31.96L20 32.12V57.48H24.4V59H2.98023e-08V57.48H4.4V4.52H2.98023e-08V3ZM75.5 40.2H77.82V34.04C77.82 28.9733 77.5267 25.5867 76.94 23.88C76.4067 22.12 75.34 21.24 73.74 21.24C72.78 21.24 71.9 21.5067 71.1 22.04C70.3533 22.52 69.98 23.2133 69.98 24.12C69.98 24.9733 70.14 25.8533 70.46 26.76H72.46C72.8867 27.88 73.1 29.24 73.1 30.84C73.1 32.3867 72.4333 33.7467 71.1 34.92C69.7667 36.04 68.0867 36.6 66.06 36.6C61.4733 36.6 59.18 34.3867 59.18 29.96C59.18 23.4 64.7533 20.12 75.9 20.12C82.2467 20.12 86.62 21.2133 89.02 23.4C91.4733 25.5333 92.7 29.48 92.7 35.24V51.48C92.7 54.2533 93.4733 55.64 95.02 55.64C96.8333 55.64 97.9 52.8933 98.22 47.4L99.42 47.48C99.2067 52.1733 98.3267 55.4 96.78 57.16C95.2333 58.92 92.7 59.8 89.18 59.8C82.78 59.8 79.1 57.8267 78.14 53.88C77.4467 55.9067 76.4067 57.4 75.02 58.36C73.6333 59.32 71.6067 59.8 68.94 59.8C61.0467 59.8 57.1 56.5733 57.1 50.12C57.1 46.3333 58.5933 43.7467 61.58 42.36C64.62 40.92 69.26 40.2 75.5 40.2ZM72.3 50.04C72.3 52.8133 72.4333 54.6 72.7 55.4C73.02 56.2 73.58 56.6 74.38 56.6C75.2333 56.6 76.0067 55.9333 76.7 54.6C77.4467 53.2133 77.82 51.32 77.82 48.92V41.48H77.26C73.9533 41.48 72.3 43.9067 72.3 48.76V50.04ZM100.366 20.92H119.646V28.28C120.5 25.8267 121.806 23.8533 123.566 22.36C125.326 20.8667 127.993 20.12 131.566 20.12C139.833 20.12 143.966 24.5733 143.966 33.48V57.56H148.446V59H125.806V57.56H129.086V31.56C129.086 28.36 128.873 26.3067 128.446 25.4C128.02 24.44 127.246 23.96 126.126 23.96C124.42 23.96 122.9 25.08 121.566 27.32C120.286 29.56 119.646 32.28 119.646 35.48V57.56H123.086V59H100.366V57.56H104.766V22.36H100.366V20.92ZM145.119 22.36V20.92H168.319V22.36H163.999L172.719 48.92L181.999 22.36H176.639V20.92H187.919V22.36H183.919L168.959 65.48C167.199 70.4933 165.225 73.9867 163.039 75.96C160.852 77.9867 158.185 79 155.039 79C151.892 79 149.412 78.28 147.599 76.84C145.785 75.4 144.879 73.56 144.879 71.32C144.879 69.08 145.465 67.3733 146.639 66.2C147.812 65.0267 149.359 64.44 151.279 64.44C155.705 64.44 157.919 66.28 157.919 69.96C157.919 70.76 157.759 71.72 157.439 72.84H154.639C154.212 74.0667 154.159 75.08 154.479 75.88C154.799 76.68 155.519 77.08 156.639 77.08C158.825 77.08 160.772 75.9867 162.479 73.8C164.185 71.6667 165.812 68.3867 167.359 63.96L169.119 59H162.079L148.399 22.36H145.119ZM207.106 59.8C200.226 59.8 195.052 58.04 191.586 54.52C188.172 50.9467 186.466 46.0133 186.466 39.72C186.466 33.3733 188.386 28.52 192.226 25.16C196.119 21.8 201.052 20.12 207.026 20.12C219.132 20.12 224.946 26.2 224.466 38.36H201.906V41.48C201.906 46.7067 202.572 50.6533 203.906 53.32C205.239 55.9867 207.559 57.32 210.866 57.32C217.052 57.32 221.106 54.0133 223.026 47.4L224.466 47.64C223.452 51.48 221.612 54.4667 218.946 56.6C216.332 58.7333 212.386 59.8 207.106 59.8ZM201.986 36.76H210.226V32.84C210.226 28.52 209.959 25.5867 209.426 24.04C208.946 22.44 207.932 21.64 206.386 21.64C204.892 21.64 203.772 22.4933 203.026 24.2C202.332 25.8533 201.986 28.7333 201.986 32.84V36.76ZM274.811 42.84L281.451 19.8L276.651 4.52H272.091V3H296.891V4.52H292.171L304.091 42.36L313.691 4.52H305.611V3H321.611V4.52H316.331L301.611 59.8H294.491L282.651 23.64L272.251 59.8H265.291L245.131 4.52H241.371V3H267.371V4.52H261.771L274.811 42.84ZM337.496 59.8C330.616 59.8 325.443 58.04 321.976 54.52C318.563 50.9467 316.856 46.0133 316.856 39.72C316.856 33.3733 318.776 28.52 322.616 25.16C326.51 21.8 331.443 20.12 337.416 20.12C349.523 20.12 355.336 26.2 354.856 38.36H332.296V41.48C332.296 46.7067 332.963 50.6533 334.296 53.32C335.63 55.9867 337.95 57.32 341.256 57.32C347.443 57.32 351.496 54.0133 353.416 47.4L354.856 47.64C353.843 51.48 352.003 54.4667 349.336 56.6C346.723 58.7333 342.776 59.8 337.496 59.8ZM332.376 36.76H340.616V32.84C340.616 28.52 340.35 25.5867 339.816 24.04C339.336 22.44 338.323 21.64 336.776 21.64C335.283 21.64 334.163 22.4933 333.416 24.2C332.723 25.8533 332.376 28.7333 332.376 32.84V36.76ZM358.765 59.8V45.48H359.725C361.112 50.12 362.978 53.3733 365.325 55.24C367.672 57.1067 370.605 58.04 374.125 58.04C379.565 58.04 382.285 56.3067 382.285 52.84C382.285 51.3467 381.618 50.2267 380.285 49.48C378.205 48.3067 375.538 47.4 372.285 46.76C368.658 45.8 365.618 44.52 363.165 42.92C360.232 41 358.765 37.96 358.765 33.8C358.765 29.64 360.045 26.3333 362.605 23.88C365.165 21.3733 368.578 20.12 372.845 20.12C375.458 20.12 378.152 20.7333 380.925 21.96C381.938 22.3867 382.712 22.6 383.245 22.6C383.778 22.6 384.232 22.4133 384.605 22.04C384.978 21.6667 385.432 20.9733 385.965 19.96H386.845V32.2H385.885C383.165 25.2667 378.952 21.8 373.245 21.8C370.738 21.8 368.872 22.2533 367.645 23.16C366.418 24.0133 365.805 25.1067 365.805 26.44C365.805 27.24 365.992 27.88 366.365 28.36C366.738 28.7867 367.032 29.1067 367.245 29.32C367.458 29.5333 367.805 29.7733 368.285 30.04C368.765 30.2533 369.165 30.44 369.485 30.6C369.805 30.7067 370.285 30.8667 370.925 31.08C371.618 31.2933 372.125 31.4267 372.445 31.48C376.072 32.3867 378.685 33.1867 380.285 33.88C381.885 34.52 383.405 35.32 384.845 36.28C387.778 38.3067 389.245 41.5867 389.245 46.12C389.245 50.6 387.912 54.0133 385.245 56.36C382.578 58.6533 378.925 59.8 374.285 59.8C370.978 59.8 367.778 59.0267 364.685 57.48C364.045 57.0533 363.538 56.84 363.165 56.84C361.992 56.84 360.845 57.8267 359.725 59.8H358.765ZM394.831 47.56V22.36H390.431V20.92H394.831V10.6L409.711 6.92V20.92H420.111V22.36H409.711V49.32C409.711 51.8267 409.951 53.6667 410.431 54.84C410.965 56.0133 412.031 56.6 413.631 56.6C415.231 56.6 416.618 55.8 417.791 54.2C419.018 52.6 419.818 50.4133 420.191 47.64L421.551 47.8C421.125 51.48 419.951 54.4133 418.031 56.6C416.111 58.7333 412.938 59.8 408.511 59.8C404.085 59.8 400.698 58.92 398.351 57.16C396.005 55.4 394.831 52.2 394.831 47.56ZM426.593 22.84L425.873 21.72C430.833 18.4667 433.313 15.2133 433.313 11.96C433.313 10.2533 432.593 9.29333 431.153 9.08L427.793 12.2C426.726 11.8267 425.74 11.16 424.833 10.2C423.98 9.18667 423.553 7.90666 423.553 6.36C423.553 4.81333 424.166 3.50666 425.393 2.44C426.62 1.32 428.22 0.759996 430.193 0.759996C432.22 0.759996 433.873 1.45333 435.153 2.84C436.486 4.17333 437.153 6.04 437.153 8.44C437.153 13.6667 433.633 18.4667 426.593 22.84ZM436.968 59.8V45.48H437.928C439.315 50.12 441.181 53.3733 443.528 55.24C445.875 57.1067 448.808 58.04 452.328 58.04C457.768 58.04 460.488 56.3067 460.488 52.84C460.488 51.3467 459.821 50.2267 458.488 49.48C456.408 48.3067 453.741 47.4 450.488 46.76C446.861 45.8 443.821 44.52 441.368 42.92C438.435 41 436.968 37.96 436.968 33.8C436.968 29.64 438.248 26.3333 440.808 23.88C443.368 21.3733 446.781 20.12 451.048 20.12C453.661 20.12 456.355 20.7333 459.128 21.96C460.141 22.3867 460.915 22.6 461.448 22.6C461.981 22.6 462.435 22.4133 462.808 22.04C463.181 21.6667 463.635 20.9733 464.168 19.96H465.048V32.2H464.088C461.368 25.2667 457.155 21.8 451.448 21.8C448.941 21.8 447.075 22.2533 445.848 23.16C444.621 24.0133 444.008 25.1067 444.008 26.44C444.008 27.24 444.195 27.88 444.568 28.36C444.941 28.7867 445.235 29.1067 445.448 29.32C445.661 29.5333 446.008 29.7733 446.488 30.04C446.968 30.2533 447.368 30.44 447.688 30.6C448.008 30.7067 448.488 30.8667 449.128 31.08C449.821 31.2933 450.328 31.4267 450.648 31.48C454.275 32.3867 456.888 33.1867 458.488 33.88C460.088 34.52 461.608 35.32 463.048 36.28C465.981 38.3067 467.448 41.5867 467.448 46.12C467.448 50.6 466.115 54.0133 463.448 56.36C460.781 58.6533 457.128 59.8 452.488 59.8C449.181 59.8 445.981 59.0267 442.888 57.48C442.248 57.0533 441.741 56.84 441.368 56.84C440.195 56.84 439.048 57.8267 437.928 59.8H436.968Z" fill="black"/>
</svg>
